<?xml version="1.0" standalone="no"?>
<!DOCTYPE svg PUBLIC "-//W3C//DTD SVG 20010904//EN"
 "http://www.w3.org/TR/2001/REC-SVG-20010904/DTD/svg10.dtd">
<svg version="1.0" xmlns="http://www.w3.org/2000/svg"
 width="347.000000pt" height="359.000000pt" viewBox="0 0 347.000000 359.000000"
 preserveAspectRatio="xMidYMid meet">
<metadata>
Created by potrace 1.16, written by Peter Selinger 2001-2019
</metadata>
<g transform="translate(0.000000,359.000000) scale(0.100000,-0.100000)"
fill="#000000" stroke="none">
<path d="M0 3085 l0 -505 28 0 c33 0 316 -17 430 -26 78 -6 84 -8 97 -35 9
-16 15 -55 15 -92 0 -154 7 -177 81 -277 78 -104 88 -136 69 -224 -7 -34 -12
-94 -10 -134 1 -53 -3 -78 -13 -90 -12 -14 -13 -34 -7 -107 4 -49 6 -93 3 -97
-2 -4 2 -34 8 -67 20 -94 -11 -109 -119 -59 -24 11 -45 18 -47 16 -4 -3 8 -82
31 -206 3 -12 23 -40 44 -61 l40 -39 -52 -55 c-56 -59 -97 -78 -273 -127 -93
-26 -174 -64 -262 -123 l-63 -42 0 -367 0 -368 445 0 c245 0 445 2 445 4 0 2
-18 42 -40 89 -56 119 -105 275 -119 382 -7 50 -19 133 -27 185 -16 113 -10
170 18 170 13 0 20 9 25 30 5 30 6 30 20 10 8 -11 22 -20 31 -20 11 0 27 -19
42 -47 14 -27 35 -63 49 -82 13 -18 28 -51 32 -72 5 -22 18 -48 29 -59 11 -11
20 -31 20 -45 0 -36 38 -127 60 -142 10 -7 24 -30 30 -51 7 -20 26 -51 42 -68
16 -17 37 -46 46 -65 9 -19 28 -39 41 -46 13 -6 28 -19 33 -27 5 -9 16 -16 24
-16 9 0 38 -17 65 -37 27 -21 66 -50 85 -65 l37 -28 319 0 c343 0 361 2 484
61 49 23 64 24 64 4 0 -24 26 -18 38 9 6 13 25 34 42 46 l32 23 -4 -71 -4 -72
533 0 533 0 0 193 0 192 -82 19 c-117 26 -501 153 -562 185 -48 26 -51 31 -54
70 -2 24 2 49 9 58 20 23 49 140 55 218 5 68 7 71 49 108 24 20 48 52 54 70
13 41 41 288 40 347 l-1 45 -8 -50 c-10 -69 -32 -109 -75 -134 -57 -33 -62
-30 -57 47 8 140 9 282 2 319 l-6 38 -8 -55 c-32 -234 -74 -439 -96 -465 -4
-5 -18 -38 -29 -73 -17 -51 -34 -76 -91 -134 -39 -39 -70 -79 -70 -89 0 -11
-7 -19 -15 -19 -9 0 -15 -9 -15 -23 0 -35 -8 -37 -45 -15 -42 24 -49 45 -31
89 20 48 31 145 17 153 -6 4 -11 15 -11 25 0 9 -13 30 -29 45 -29 28 -122 76
-146 76 -25 0 -105 52 -137 90 -18 22 -45 42 -59 45 -33 8 -58 -15 -52 -48 3
-14 0 -28 -6 -31 -6 -4 -11 -2 -11 4 0 8 -6 8 -20 0 -11 -6 -20 -17 -20 -26 0
-8 -7 -17 -15 -20 -18 -7 -68 23 -60 35 3 5 -2 11 -10 15 -8 3 -17 1 -20 -4
-14 -22 -35 -9 -35 20 0 25 -6 33 -35 47 -37 18 -31 19 -114 -27 -18 -10 -43
-28 -56 -40 -16 -15 -29 -19 -48 -15 -19 5 -34 1 -54 -15 -16 -12 -29 -17 -31
-11 -4 12 -41 14 -58 3 -6 -4 -16 -16 -22 -27 -6 -11 -12 -15 -12 -8 0 9 -8 9
-30 1 -36 -12 -42 -20 -47 -67 -2 -22 -12 -43 -25 -52 l-21 -16 21 -31 c38
-52 21 -143 -32 -178 -20 -13 -27 -13 -58 0 -36 16 -55 41 -38 51 6 4 10 13
10 22 0 15 -12 15 -52 -2 -12 -5 -17 -1 -20 17 -2 19 -9 23 -38 23 -30 0 -35
3 -35 24 0 19 -10 30 -38 45 -31 16 -37 24 -33 42 4 14 1 24 -9 28 -8 3 -15
18 -15 33 0 17 -9 36 -21 47 -18 15 -21 26 -16 62 2 24 0 45 -5 46 -12 4 -37
68 -48 123 -11 53 -24 91 -49 142 -12 23 -21 48 -21 56 0 7 -5 18 -12 25 -16
16 -16 172 1 257 7 39 24 147 36 240 13 94 28 191 33 217 8 43 29 80 56 99 10
8 1 40 -11 38 -25 -4 -45 3 -40 13 2 7 1 22 -3 33 -6 15 -1 26 19 42 22 18 24
25 15 40 -9 15 -9 25 1 44 8 13 14 54 14 90 0 37 5 86 12 110 7 24 13 50 14
57 0 18 115 123 127 116 5 -3 15 -1 22 5 7 6 21 9 29 5 9 -3 32 4 52 16 30 18
44 21 86 15 44 -6 54 -4 75 16 21 20 24 20 24 5 0 -14 5 -17 23 -11 12 4 30 6
40 5 50 -4 115 -2 135 5 19 6 24 4 28 -12 10 -37 77 -56 185 -54 39 1 60 -3
69 -14 8 -9 21 -13 36 -9 15 4 34 0 50 -11 22 -14 31 -15 55 -5 16 7 36 10 44
6 21 -8 145 23 167 41 9 8 21 12 26 9 6 -3 9 8 8 27 -1 33 -1 33 48 24 4 -1
23 -15 42 -31 38 -33 69 -43 60 -20 -3 8 -1 14 5 14 6 0 7 6 3 12 -5 7 8 -3
27 -22 19 -19 53 -44 76 -55 28 -13 49 -34 67 -67 15 -26 31 -50 37 -53 5 -4
18 -24 29 -46 16 -30 26 -39 46 -39 32 0 78 -49 92 -98 5 -20 11 -71 11 -112
1 -77 2 -85 16 -133 5 -18 3 -37 -4 -50 -12 -23 -11 -127 1 -127 4 0 10 -17
13 -37 8 -52 46 -245 52 -263 4 -11 8 -8 16 10 36 85 73 149 104 179 29 29 34
40 29 65 -19 95 -18 111 1 129 19 16 33 17 264 2 134 -8 245 -15 246 -15 2 0
3 275 3 610 l0 610 -106 0 -105 0 5 -82 c14 -221 16 -307 7 -312 -5 -4 -48 -3
-95 0 -82 7 -85 8 -89 33 -4 26 -4 26 -12 4 -8 -25 -24 -27 -105 -15 -42 7
-45 9 -51 45 -5 30 -3 37 8 33 9 -4 7 7 -7 34 -12 24 -16 40 -9 40 6 0 9 7 5
15 -3 10 1 15 11 15 15 0 15 1 0 18 -14 15 -15 25 -4 72 7 30 11 65 9 77 l-3
23 -1465 0 -1464 0 0 -505z m1747 -1875 c26 1 95 1 153 1 97 1 159 -9 202 -32
10 -5 26 -9 37 -9 10 0 32 -7 47 -15 16 -8 38 -15 49 -15 11 0 27 -9 35 -19 7
-11 18 -17 23 -14 14 9 57 -19 57 -37 0 -10 14 -35 31 -56 18 -23 26 -40 19
-42 -20 -7 -59 -52 -49 -57 19 -13 9 -32 -15 -28 -17 4 -25 0 -28 -15 -3 -11
-18 -26 -34 -33 -16 -8 -30 -23 -32 -34 -5 -26 -24 -48 -31 -37 -7 9 -73 57
-81 58 -3 0 -30 6 -60 12 -30 6 -77 12 -105 12 -45 1 -66 -1 -130 -13 -11 -2
-20 -9 -20 -15 0 -6 -6 -17 -13 -24 -11 -11 -12 -10 -8 2 4 10 -5 21 -24 32
-28 16 -30 16 -40 -2 -5 -10 -10 -26 -10 -34 0 -9 -4 -16 -10 -16 -5 0 -10 -6
-10 -12 -1 -16 -70 -52 -70 -37 0 6 -4 7 -10 4 -5 -3 -10 -1 -10 6 0 8 -4 8
-15 -1 -12 -10 -15 -10 -15 3 0 25 -17 29 -50 12 -32 -17 -38 -11 -16 14 7 9
16 28 20 44 6 27 6 27 -34 21 -36 -6 -40 -4 -40 14 0 34 -11 52 -31 52 -24 0
-35 25 -20 44 8 10 9 15 1 18 -6 2 -13 23 -15 47 -4 41 -2 45 56 101 36 35 66
57 75 53 8 -3 18 5 24 19 9 19 17 23 43 20 18 -2 41 3 52 11 13 10 25 12 37 6
9 -5 38 -9 65 -9z m138 -536 c14 -15 25 -32 25 -39 0 -7 6 -18 14 -25 34 -27
22 -59 -47 -132 -10 -10 -15 -23 -12 -28 6 -9 -4 -35 -15 -42 -3 -2 -19 10
-34 25 -22 22 -31 26 -37 15 -5 -8 -9 -9 -9 -2 0 7 10 19 23 27 19 12 23 24
24 66 1 46 -1 50 -15 39 -13 -11 -15 -10 -9 5 4 10 7 28 7 38 0 16 5 19 20 14
16 -5 20 -2 21 17 1 13 1 29 0 36 -3 20 18 14 44 -14z"/>
<path d="M1162 2424 c-6 -7 -42 -24 -81 -38 -38 -15 -75 -34 -82 -42 -14 -18
-29 -93 -19 -99 4 -2 21 6 39 19 18 13 47 30 64 36 52 19 81 34 95 48 9 8 26
10 46 7 43 -9 86 9 86 35 0 14 4 19 12 14 6 -4 8 -3 5 3 -13 21 -149 34 -165
17z"/>
<path d="M1346 2395 c4 -8 10 -15 14 -15 4 0 19 -11 34 -25 15 -14 32 -23 37
-20 5 4 18 -1 30 -9 12 -8 27 -12 35 -9 7 2 26 -2 41 -10 38 -19 96 -38 101
-32 3 2 -1 11 -8 20 -10 13 -9 15 9 15 11 0 21 5 21 10 0 6 -6 10 -14 10 -8 0
-25 12 -38 28 -25 29 -71 40 -93 22 -8 -7 -24 -9 -36 -5 -13 5 -24 2 -29 -6
-6 -9 -16 -6 -40 14 -35 30 -73 37 -64 12z"/>
<path d="M2421 2343 c-10 -6 -46 -13 -80 -14 -118 -5 -212 -40 -241 -92 -25
-44 -5 -50 91 -29 46 10 95 24 107 31 13 7 74 14 140 16 97 2 123 0 152 -15
41 -21 65 -46 74 -78 9 -28 44 -48 59 -33 5 5 9 34 8 62 -2 58 0 56 -101 122
-59 38 -71 42 -129 42 -35 0 -71 -5 -80 -12z"/>
<path d="M1328 2171 c-27 -4 -53 -12 -60 -19 -9 -9 -5 -10 19 -3 40 12 52 -1
46 -48 -4 -30 0 -43 19 -65 21 -25 27 -27 58 -19 48 12 77 66 55 100 -8 12
-15 31 -15 41 0 21 -36 25 -122 13z"/>
<path d="M2304 2133 c-29 -4 -32 -8 -38 -48 -9 -58 12 -101 55 -110 24 -6 36
-2 56 17 22 20 24 29 19 71 -4 40 -2 47 12 48 11 0 6 6 -13 14 -31 14 -36 15
-91 8z"/>
</g>
</svg>
